<svg width="580" height="400" xmlns="http://www.w3.org/2000/svg">
 <!-- Created with Method Draw - http://github.com/duopixel/Method-Draw/ -->
 <defs>
  <linearGradient y2="0" x2="1" y1="0" x1="0" id="svg_3">
   <stop offset="0" stop-opacity="0.996094" stop-color="#ffc700"/>
   <stop offset="1" stop-opacity="0.996094" stop-color="#ff005d"/>
  </linearGradient>
  <filter id="svg_11_blur">
   <feGaussianBlur stdDeviation="0.8" in="SourceGraphic"/>
  </filter>
  <filter id="svg_8_blur">
   <feGaussianBlur stdDeviation="0.8" in="SourceGraphic"/>
  </filter>
 </defs>
 <g>
  <title>background</title>
  <rect fill="#fff" id="canvas_background" height="402" width="582" y="-1" x="-1"/>
  <g display="none" overflow="visible" y="0" x="0" height="100%" width="100%" id="canvasGrid">
   <rect fill="url(#gridpattern)" stroke-width="0" y="0" x="0" height="100%" width="100%"/>
  </g>
 </g>
 <g>
  <title>Layer 1</title>
  <rect stroke="#000" transform="rotate(90 289.5,264.0213012695313) " id="svg_2" height="581.999967" width="713.042597" y="-26.978692" x="-67.021301" stroke-width="1.5" fill="url(#svg_3)"/>
  <path filter="url(#svg_8_blur)" opacity="0.35" id="svg_8" d="m94.5,171.5l97.5,-1.5c0.5,0.5 -4.5,-12.5 -16.5,-17.5c-12,-5 9,-8 -6.5,-19.5c-15.5,-11.5 -37.5,-6.5 -43.5,15.5c-6,22 -21,14 -29.5,3.5c-8.5,-10.5 -40.5,18.5 -22.5,18.5c18,0 20,2 21,1z" fill-opacity="null" stroke-opacity="null" stroke-width="1.5" stroke="#000" fill="#ffffff"/>
  <path id="svg_9" d="m404.5,162.5" opacity="0.5" fill-opacity="null" stroke-opacity="null" stroke-width="1.5" stroke="#000" fill="#ffffff"/>
  <path opacity="0.26" id="svg_10" d="m390.5,165.5l133.5,0.5c0.5,0.5 -12.5,-48.5 -51.5,-38.5c-39,10 15,-25 -39,-28c-54,-3 -89,74 -43,66z" fill-opacity="null" stroke-opacity="null" stroke-width="1.5" stroke="#000" fill="#ffffff"/>
  <path filter="url(#svg_11_blur)" opacity="0.25" id="svg_11" d="m238.5,211.5l104.5,-1.5c0.5,0.5 -8.5,-63.5 -43.5,-43.5c-35,20 -37,21 -40,5c-3,-16 -97,39 -54,39c43,0 32,0 33,1z" fill-opacity="null" stroke-opacity="null" stroke-width="1.5" stroke="#000" fill="#ffffff"/>
 </g>
</svg>