<svg width="580" height="400" xmlns="http://www.w3.org/2000/svg">
 <!-- Created with Method Draw - http://github.com/duopixel/Method-Draw/ -->
 <g>
  <title>Layer 1</title>
  <path id="svg_2" d="m200,272.5c-99.448394,-4.350817 -55,5 -127,-11c-72,-16 -7,-90 24,-79.5c31,10.5 32,17.5 60,-2.5c28,-20 -26,-54 40,-79c66,-25 29,38 76,22c47,-16 25,-39 65,-47c40,-8 70,3 72,30c2,27 -38,66 31,54c69,-12 202,114 27,115c-175,1 -168.551606,2.350817 -268,-2z" stroke-opacity="null" stroke-width="1.5" stroke="#000" fill="#ffffff"/>
 </g>
</svg>