<svg width="580" height="400" xmlns="http://www.w3.org/2000/svg">
 <!-- Created with Method Draw - http://github.com/duopixel/Method-Draw/ -->
 <g>
  <title>background</title>
  <rect fill="#fff" id="canvas_background" height="402" width="582" y="-1" x="-1"/>
 </g>
 <g>
  <title>Layer 1</title>
  <path id="svg_3" d="m346.916988,143.062811c-0.642391,-27.399374 -23.049273,-49.415232 -50.609248,-49.429197c-18.419867,0.006983 -34.507575,9.859306 -43.347436,24.557492c-4.154595,-2.283281 -8.937616,-3.609958 -14.034849,-3.609958c-15.913145,0.013965 -28.858723,12.610415 -29.438271,28.390891c-16.709152,5.488254 -28.802863,21.122097 -28.816828,39.702559c0,23.126077 18.76201,41.895068 41.895073,41.895068l0,-0.013965l36.804822,0l-15.124121,23.726573l13.804427,-2.869812l-18.461762,62.221158l63.806196,-70.537329l-14.928611,1.58503l15.131104,-14.12562l29.808344,0c23.12608,0 41.895073,-18.76899 41.895073,-41.895068c-0.013965,-18.412882 -11.898201,-33.983882 -28.383912,-39.597822zm-13.511161,67.541832l-110.847381,0c-15.424369,-0.041895 -27.909101,-12.51266 -27.937031,-27.937028c-0.013965,-13.839337 10.124643,-25.262726 23.391416,-27.448252c1.850366,-0.300248 3.505221,-1.33366 4.58751,-2.89076c1.082289,-1.5571 1.480293,-3.470308 1.138149,-5.327656c-0.19551,-1.033412 -0.314213,-2.010963 -0.314213,-2.960585c0.02793,-8.553576 6.9476,-15.473245 15.501177,-15.48721c4.517685,0 8.497717,1.941138 11.402442,5.104216c1.626925,1.794505 4.098735,2.618442 6.472789,2.157596c2.388019,-0.460846 4.371053,-2.143631 5.222919,-4.398982c5.229902,-13.909162 18.587447,-23.824329 34.291117,-23.810364c20.242303,0.02793 36.616294,16.408902 36.665171,36.651202c0,1.124184 -0.062843,2.276299 -0.188528,3.470308c-0.342143,3.609958 2.129666,6.870791 5.690747,7.53413c12.987473,2.401984 22.860745,13.727617 22.839797,27.392392c-0.02793,15.43135 -12.491714,27.909098 -27.916084,27.950993z" fill-opacity="null" stroke-opacity="null" stroke-width="1.5" stroke="#000" fill="#ffffff"/>
 </g>
</svg>