<svg width="580" height="400" xmlns="http://www.w3.org/2000/svg">
 <!-- Created with Method Draw - http://github.com/duopixel/Method-Draw/ -->
 <g>
  <title>Layer 1</title>
  <path id="svg_6" d="m205.46683,260.15946l32.02722,15.27451c0.24635,0.24636 21.92631,11.3327 25.62175,10.83998c3.69545,-0.49273 6.15908,0 5.91273,-0.24636c0.24635,0.24636 -2.95637,2.21726 -3.20272,1.9709c0.24635,0.24636 -0.49274,2.95636 6.89816,2.95636c7.39089,0 16.50633,2.70999 21.92631,-1.47818c5.41999,-4.18818 2.95636,-4.6809 2.71001,-4.92726c0.24635,0.24636 13.05723,-1.97091 17.49177,-4.43454c4.43454,-2.46363 11.08634,-7.39089 12.31816,-12.07179c1.23181,-4.6809 8.37634,-11.08634 9.11543,-11.08634c0.73909,0 30.79539,-3.69545 44.59173,-16.7527c13.79633,-13.05724 13.54997,-9.60816 13.30362,-9.85452c0.24635,0.24636 -2.71001,-2.21727 -2.95636,-2.46363c0.24635,0.24636 1.97089,-3.44909 1.72454,-3.69545c0.24635,0.24636 -2.46364,-1.47818 -2.70999,-1.72454c0.24635,0.24636 1.97089,-3.20272 1.72454,-3.44908c0.24635,0.24636 -5.17364,0.24636 -5.17364,0.24636c0,0 -1.23181,-3.20272 -1.47816,-3.44908c0.24635,0.24636 -2.46365,1.47817 -2.71,1.23181c0.24635,0.24636 -1.72455,-0.98545 -1.9709,-1.23181c0.24635,0.24636 -2.46365,2.95635 -2.71,2.70999c0.24635,0.24636 -14.28907,0.98545 -14.53542,0.73909c0.24635,0.24636 -20.44815,23.40449 -19.46269,24.88268" stroke-width="1.5" stroke="#000" fill="#ffe70f"/>
  <path id="svg_7" d="m343.67655,244.14585c0,0 20.20177,-25.12903 21.43359,-27.09994" fill-opacity="null" stroke-opacity="null" stroke-width="1.5" stroke="#000" fill="#fff"/>
  <path id="svg_9" d="m365.11014,218.03136c-21.92632,25.86813 7.88362,-6.40544 4.18817,-14.28906c-3.69545,-7.88362 -6.40544,-9.60816 -6.65179,-9.85452c0.24635,0.24636 -4.18819,-8.37635 -4.18819,-11.57907c0,-3.20272 -1.47818,-7.63726 -1.72453,-7.88362c0.24635,0.24636 -2.46364,-11.82543 -19.95542,-16.75269c-17.49178,-4.92726 -21.18723,-4.92726 -21.43358,-5.17363c0.24635,0.24637 -14.28907,-1.9709 -21.18724,0c-6.89817,1.97091 -13.30361,4.43454 -14.28906,5.66635c-0.98546,1.23182 -0.49273,-1.9709 -0.73908,-2.21726c0.24635,0.24636 -37.44721,-0.73909 -54.93899,2.95635c-17.49178,3.69545 -20.94086,4.92727 -21.18723,4.92727c-0.24636,0 19.21633,11.08634 30.54903,12.07179c11.3327,0.98545 25.86813,5.17362 25.86813,5.17362c0,0 5.17362,0.98546 5.17362,0.73909" stroke-opacity="null" stroke-width="1.5" stroke="#000" fill="#ffe70f"/>
  <path id="svg_13" d="m205.46683,259.91309l-5.17361,-4.18817c-5.17364,-5.17363 -4.92727,-9.11544 -3.69546,-12.56452c1.23182,-3.44908 -4.92726,-7.88362 1.72454,-18.96996c6.65181,-11.08634 10.10089,-12.56452 11.33271,-14.0427c1.23181,-1.47818 8.12998,-6.89816 14.78178,-6.6518c6.65181,0.24636 10.59362,0.24636 10.34727,0c0.24635,0.24636 8.37633,0.98545 12.07178,-2.21727c3.69545,-3.20272 10.10088,-15.76724 12.31815,-19.95541c2.21727,-4.18817 105.19706,35.96901 105.44342,35.96901c0.24636,0 -1.47818,5.41999 -21.43358,28.57813" stroke-opacity="null" stroke-width="1.5" stroke="#000" fill="#ffe70f"/>
  <path id="svg_14" d="m258.18854,185.51143c0,0 4.43454,-11.57907 4.18819,-11.82543c0.24635,0.24636 105.19704,37.93992 104.95069,37.69356c0.24635,0.24636 -6.65182,11.57907 -6.65182,11.82543c0,0.24636 -102.48706,-37.69356 -102.48706,-37.69356z" stroke-opacity="0" stroke-width="1.5" stroke="#0f0f00" fill="#ffe70f"/>
  <path id="svg_15" d="m331.35839,156.44058c0,0 0,-10.59361 0.98545,-14.78179c0.98545,-4.18817 4.43454,-20.94086 6.15908,-21.92631c1.72454,-0.98546 9.11544,16.0136 9.3618,16.25996c0.24636,0.24637 9.3618,33.75175 8.37634,34.98357c-0.98545,1.23181 -2.70999,-4.92727 -4.68089,-5.91272c-1.97091,-0.98545 -20.20178,-8.62271 -20.20178,-8.62271z" stroke-width="1.5" stroke="#000" fill="#ffe70f"/>
  <ellipse ry="9.731343" rx="9.115435" id="svg_16" cy="194.503684" cx="296.621189" stroke-opacity="null" stroke-width="1.5" stroke="#000" fill="#ff0f0f"/>
  <path id="svg_18" d="m366.58832,216.55318l-3.69544,-1.72454c0.24635,0.24637 -1.97092,-6.89817 -1.97092,-7.39089c0,-0.49273 0.98546,-8.37635 2.46364,-8.62271c1.47817,-0.24636 2.46363,-0.24636 2.21728,-0.49273c0.24635,0.24637 4.18816,5.66635 3.94181,5.41999c0.24635,0.24636 -0.00002,4.6809 -2.95637,12.81088z" fill-opacity="null" stroke-opacity="null" stroke-width="1.5" stroke="#000" fill="#ff0f0f"/>
  <path id="svg_20" d="m257.942179,219.755904l9.36181,-30.056299c0.246351,0.246361 0.985441,-6.405443 0.246351,-6.405443c-0.739089,0 2.463631,-1.970905 2.956357,-1.724542c0.492726,0.246363 2.217268,-1.724542 2.956357,-0.739089c0.739089,0.985452 2.709994,-1.970905 2.463643,-2.217266c0.246351,0.246361 3.202709,2.463629 2.956357,2.217268c0.246351,0.246361 3.941798,-1.970907 3.695447,-2.217268c0.246351,0.246361 1.970893,3.695445 1.724542,3.449084c0.246351,0.246361 5.173614,1.970903 4.927262,1.724542c0.246351,0.246361 -2.463643,2.463629 -2.709994,2.217268c0.246351,0.246361 1.970893,2.463629 1.724542,2.217268c0.246351,0.246361 0.985441,14.535422 0.739089,14.289061c0.246351,0.246361 -1.231828,22.172679 -1.478179,21.926318" stroke-width="1.5" stroke="#000" fill="#ffe70f"/>
  <ellipse ry="8.006801" rx="8.253165" id="svg_21" cy="177.258266" cx="312.265248" stroke-opacity="null" stroke-width="1.5" stroke="#000" fill="#000000"/>
  <ellipse ry="6.528623" rx="3.572265" id="svg_22" cy="185.388249" cx="353.900615" stroke-opacity="null" stroke-width="1.5" stroke="#000" fill="#000000"/>
  <ellipse ry="3.449084" rx="2.463631" id="svg_23" cy="174.178727" cx="316.822965" stroke-opacity="0" stroke-width="1.5" stroke="#0f0f00" fill="#ffffff"/>
  <ellipse ry="2.709994" rx="1.231816" id="svg_24" cy="182.30871" cx="354.023797" stroke-opacity="0" stroke-width="1.5" stroke="#0f0f00" fill="#ffffff"/>
  <path id="svg_25" d="m208.915918,211.872285l-10.100877,-6.405439l5.912715,-14.042698l-20.448139,-3.695447l14.289061,-33.505385l-37.939921,-9.361799l3.449084,-48.533535l62.083507,35.47629l-20.940866,42.62082l15.520877,12.071793l-7.637257,13.303609l7.144531,4.680899l-11.332715,7.390892z" stroke-width="1.5" stroke="#000" fill="#ffe70f"/>
  <path id="svg_26" d="m208.66955,211.37956c-0.24636,0 -9.85452,-5.91272 -10.10087,-6.15908c0.24635,0.24636 5.41998,-11.08634 5.17362,-11.3327c0.24636,0.24636 1.72453,3.69544 1.47818,3.44908c0.24635,0.24636 5.66634,-2.95636 5.41999,-3.20272c0.24635,0.24636 -0.24637,3.94181 -0.49273,3.69545c0.24636,0.24636 2.95635,1.72454 2.71,1.47818c0.24635,0.24636 7.39088,6.15907 7.14452,6.15907c-0.24636,0 -11.08634,5.91272 -11.33271,5.91272z" stroke-width="1.5" stroke="#000" fill="#663100"/>
  <path id="svg_28" d="m234.784046,176.395995l-13.303597,-3.695445c0.246352,0.246361 -15.028162,-5.666354 -14.042709,-7.390895c0.985452,-1.724542 15.76724,-6.159078 16.752692,-6.159078c0.985452,0 0.492726,0.985452 10.593614,17.245419z" stroke-opacity="0" stroke-width="1.5" stroke="#0f0f00" fill="#000000"/>
  <path id="svg_29" d="m331.60475,151.02059l1.23183,-9.60816c0.24635,0.24636 1.47817,-21.67995 5.9127,-21.67995c4.43454,0 5.91272,11.3327 6.65181,11.82543c0.73909,0.49272 -7.14453,7.39089 -7.63726,8.86907c-0.49273,1.47818 -4.6809,7.39089 -4.43454,7.39089c0.24637,0 -1.23181,0.73909 -1.72454,3.20272z" stroke-opacity="0" stroke-width="1.5" stroke="#0f0f00" fill="#000000"/>
  <path id="svg_30" d="m339.73474,190.19233c0.24636,0.24636 2.21726,2.70999 1.97091,2.46363c0.24635,0.24636 3.44907,-1.72454 3.20272,-1.9709c0.24635,0.24636 -5.42,-0.73909 -5.17363,-0.49273z" stroke-opacity="null" stroke-width="1.5" stroke="#000" fill="#000000"/>
  <path fill-opacity="0" id="svg_31" d="m325.445675,197.829587c0.246363,0 -0.246363,2.709994 3.449084,2.956357c3.695447,0.246363 10.839977,-0.985452 11.08634,-1.478179c0.246363,-0.492726 0.492726,1.970905 1.970905,1.970905c1.478179,0 2.463631,2.217268 5.173626,0.492726" stroke-opacity="null" stroke-width="1.5" stroke="#000" fill="#000000"/>
  <path id="svg_33" d="m329.63385,218.77045l6.40545,-5.66635l4.6809,-5.66635l0.24636,-6.6518l-2.21726,-1.23182l-10.83998,1.23182c0.24635,0.24636 -0.49274,6.6518 -0.24638,8.6227c0.24637,1.97091 -1.47818,5.91272 -1.23181,6.65181c0.24636,0.73909 -2.21727,-0.49273 3.20272,2.70999z" stroke-opacity="null" stroke-width="1.5" stroke="#000" fill="#ff56ff"/>
  <path id="svg_36" d="m206.945013,258.927641l-4.927251,-5.666349l-5.666352,-6.405441l-4.680899,8.622709c0.246352,0.246361 -2.956368,3.941807 -1.970916,5.173623c0.985452,1.231816 1.478179,1.478179 3.449084,0.246363c1.970905,-1.231816 2.463631,-2.709994 2.217279,-2.956355c0.246352,0.246361 -4.68091,4.434534 -4.68091,4.680897c0,0.246363 0.492726,2.463631 2.217268,2.463631c1.724542,0 3.202721,-0.739089 2.956368,-0.98545c0.246352,0.24636 3.449073,-3.202723 3.202721,-3.449084" stroke-width="1.5" stroke="#000" fill="#ffe70f"/>
  <path id="svg_37" d="m206.945013,259.174004l-9.608151,7.637259c0.246352,0.24636 -0.492737,-1.970908 -1.231827,-1.970908c-0.739089,0 3.202721,-4.680899 2.956368,-4.92726c0.246352,0.246361 0.246352,0.98545 7.883609,-0.739092z" stroke-width="1.5" stroke="#000" fill="#ffe70f"/>
  <rect id="svg_38" height="12.810882" width="13.057245" y="245.624032" x="197.090488" stroke-opacity="0" stroke-width="1.5" stroke="#0f0f00" fill="#ffe70f"/>
  <rect stroke="#0f0f00" transform="rotate(-51.5859489440918 202.9370269775391,257.6986389160156) " id="svg_39" height="3.695447" width="8.294325" y="255.850915" x="198.789875" stroke-opacity="0" stroke-width="1.5" fill="#ffe70f"/>
  <path id="svg_40" d="m196.597762,245.870395c0,0 2.956357,11.08634 9.608162,14.535424" stroke-width="1.5" stroke="#000" fill="#ffe70f"/>
  <path id="svg_41" d="m267.7967,290.70848c-1.47817,-4.18817 -1.72454,6.65181 -0.49272,6.89817c1.23181,0.24636 3.44908,-2.70999 5.41999,-4.6809c1.9709,-1.9709 -2.71,3.94181 -2.71,3.94181c0,0 -0.73909,2.46363 2.71,2.46363c3.44908,0 5.41999,-5.91271 5.17363,-6.15907c0.24636,0.24636 -2.21728,5.66635 -2.21728,5.91271c0,0.24636 4.6809,-1.23182 5.91272,-3.69545c1.23181,-2.46363 1.72454,-3.94181 1.47819,-4.18817c0.24635,0.24636 -20.44815,-5.17363 -15.27453,-0.49273z" stroke-width="1.5" stroke="#000" fill="#ffe70f"/>
 </g>
</svg>